<?xml version="1.0" encoding="UTF-8"?><svg xmlns="http://www.w3.org/2000/svg" viewBox="0 0 156.11 63.01"><defs><style>.e{fill:#fff;}</style></defs><g id="a"/><g id="b"><g id="c"><g id="d"><g><path class="e" d="M60.09,56.25h2.24c.7,0,1.15,.16,1.34,.48,.19,.31,.29,1.06,.29,2.24s-.11,1.87-.32,2.2c-.21,.33-.68,.5-1.4,.5h-2.15v-5.42Zm-1.51-1.26v7.95h3.96c1.25,0,2.06-.28,2.42-.85,.36-.57,.54-1.84,.54-3.82,0-1.21-.22-2.07-.67-2.55-.45-.49-1.22-.73-2.33-.73h-3.91Z"/><rect class="e" x="71.72" y="54.99" width="1.51" height="7.95"/><path class="e" d="M80.74,55.21c-.45,.2-.79,.57-1.01,1.13-.18,.46-.27,1.56-.27,3.3,0,1.36,.22,2.27,.67,2.71,.45,.44,1.36,.66,2.73,.66,1.5,0,2.47-.17,2.9-.5,.43-.34,.65-1.08,.65-2.23l-.03-1.58h-3.5v1.11h2v.33c0,.68-.12,1.11-.34,1.29-.22,.18-.75,.28-1.57,.28s-1.38-.11-1.62-.32c-.23-.21-.35-.72-.35-1.51l-.02-1.02v-.8c0-.8,.12-1.31,.36-1.53,.23-.22,.79-.32,1.67-.32,.8,0,1.31,.06,1.51,.19,.2,.13,.31,.45,.34,.97h1.53c0-1.04-.21-1.7-.62-2-.41-.3-1.32-.45-2.74-.45-1.08,0-1.84,.09-2.3,.29"/><rect class="e" x="92.6" y="54.99" width="1.51" height="7.95"/><polygon class="e" points="100.02 54.99 100.02 56.34 102.31 56.34 102.31 62.94 103.82 62.94 103.82 56.34 106.19 56.34 106.19 54.99 100.02 54.99"/><path class="e" d="M115.17,56.16l1.37,4.14h-2.73l1.35-4.14Zm-1.15-1.17l-2.64,7.95h1.6l.49-1.53h3.43l.5,1.53h1.57l-2.68-7.95h-2.27Z"/><polygon class="e" points="124.78 54.99 124.78 62.94 130.02 62.94 130.02 61.59 126.29 61.59 126.29 54.99 124.78 54.99"/><polygon class="e" points="135.91 54.99 135.91 62.94 141.14 62.94 141.14 61.59 137.42 61.59 137.42 54.99 135.91 54.99"/><path class="e" d="M151.86,54.99l-1.21,2.09c-.09,.14-.2,.36-.34,.64l-.17,.32-.16,.32h-.04l-.16-.32-.17-.32c-.16-.31-.27-.53-.34-.64l-1.2-2.09h-1.75l2.87,4.91v3.04h1.51v-3.04l2.95-4.91h-1.77Z"/><path class="e" d="M36.1,28.31h2.48c.64,0,1.19,.23,1.64,.7,.46,.47,.69,1.03,.69,1.68v14.36c0,.64-.23,1.2-.67,1.67-.45,.47-1,.71-1.65,.71h-2.48V28.31Zm-4.14-4.21v27.43h6.49c1.79,0,3.32-.64,4.59-1.93,1.27-1.28,1.9-2.83,1.9-4.64v-14.32c0-1.79-.63-3.33-1.89-4.61-1.26-1.28-2.79-1.93-4.6-1.93h-6.49Z"/><polygon class="e" points="47.77 24.09 47.77 51.52 59.54 51.52 59.54 47.38 51.91 47.38 51.91 39.9 57.48 39.9 57.48 35.74 51.91 35.74 51.91 28.23 59.54 28.23 59.54 24.09 47.77 24.09"/><path class="e" d="M65.33,24.93c-1.68,1.28-2.51,3.17-2.51,5.67,0,1.38,.3,2.67,.92,3.85,.57,1.05,1.54,2.24,2.91,3.56,1.63,1.54,2.86,2.7,3.67,3.48,1.04,1.12,1.55,2.25,1.55,3.39,0,.79-.14,1.39-.41,1.81-.54,.86-1.26,1.3-2.17,1.33-.64,.03-1.21-.23-1.71-.77-.67-.71-1.09-1.87-1.27-3.46l-3.94,.28c.09,1.46,.39,2.75,.91,3.88,.52,1.13,1.22,2.02,2.11,2.68,1.06,.8,2.41,1.2,4.03,1.2,.87,0,1.64-.11,2.29-.31,1.22-.38,2.17-1.02,2.84-1.95,1.02-1.35,1.52-2.99,1.49-4.89-.01-.77-.22-1.65-.61-2.62-.16-.39-.37-.82-.63-1.29-.55-.99-1.34-2-2.36-3.02-.31-.32-.94-.88-1.9-1.68-.82-.67-1.43-1.25-1.84-1.75-1.08-1.3-1.62-2.57-1.62-3.83,0-.8,.16-1.47,.48-2.01,.39-.67,.97-1.01,1.73-1.01,.71,0,1.26,.23,1.64,.68,.53,.63,.85,1.5,.96,2.62l3.96-.72c-.1-1.2-.4-2.25-.91-3.17-.5-.92-1.16-1.63-1.98-2.14-1.05-.65-2.31-.98-3.78-.98s-2.81,.39-3.85,1.16"/><rect class="e" x="78.89" y="24.11" width="4.14" height="27.41"/><path class="e" d="M87.79,25.73c-1.28,1.28-1.92,2.82-1.92,4.64v14.95c0,1.79,.64,3.33,1.91,4.61,1.28,1.29,2.83,1.93,4.65,1.93s3.33-.64,4.62-1.9c1.28-1.27,1.92-2.81,1.92-4.64v-9.57h-6.58v4.14h2.3v5.4c0,.66-.24,1.21-.7,1.67-.47,.46-1.03,.69-1.69,.69s-1.22-.23-1.68-.69c-.46-.46-.69-1.02-.69-1.68v-15c0-.66,.23-1.22,.69-1.68,.46-.46,1.02-.7,1.68-.7s1.22,.23,1.69,.7c.46,.47,.7,1.03,.7,1.68v3.21h4.28v-3.12c0-1.81-.63-3.35-1.9-4.63-1.27-1.28-2.81-1.92-4.64-1.92s-3.36,.64-4.64,1.91"/><polygon class="e" points="111.94 24.09 111.94 42.48 106.47 24.09 101.82 24.09 101.82 51.52 105.96 51.52 105.96 33.96 111.63 51.52 116.08 51.52 116.08 24.09 111.94 24.09"/><rect class="e" x="118.92" y="24.11" width="4.14" height="27.41"/><rect class="e" x="118.92" y="24.11" width="4.14" height="27.41"/><polygon class="e" points="136.02 24.09 136.02 42.48 130.55 24.09 125.9 24.09 125.9 51.52 130.04 51.52 130.04 33.96 135.71 51.52 140.16 51.52 140.16 24.09 136.02 24.09"/><path class="e" d="M144.92,25.73c-1.28,1.28-1.92,2.82-1.92,4.64v14.95c0,1.79,.64,3.33,1.91,4.61,1.28,1.29,2.83,1.93,4.65,1.93s3.33-.64,4.62-1.9c1.28-1.27,1.93-2.81,1.93-4.64v-9.57h-6.58v4.14h2.3v5.4c0,.66-.24,1.21-.7,1.67-.47,.46-1.03,.69-1.69,.69s-1.21-.23-1.68-.69c-.46-.46-.69-1.02-.69-1.68v-15c0-.66,.23-1.22,.69-1.68,.46-.46,1.02-.7,1.68-.7s1.22,.23,1.69,.7c.47,.47,.7,1.03,.7,1.68v3.21h4.28v-3.12c0-1.81-.63-3.35-1.9-4.63-1.27-1.28-2.82-1.92-4.64-1.92s-3.36,.64-4.64,1.91"/><rect class="e" x="118.92" y="24.11" width="4.14" height="27.41"/><rect class="e" x="57.44" y="8.78" width="6.19" height="5.2" transform="translate(12.64 50.1) rotate(-49.6)"/><rect class="e" x="47.96" y="2.96" width="6.19" height="5.2" transform="translate(26.66 50.76) rotate(-67.86)"/><rect class="e" x="36.96" y=".62" width="6.19" height="5.2" transform="translate(34.89 43.07) rotate(-87.2)"/><rect class="e" x="26.14" y="1.09" width="5.2" height="6.19" transform="translate(-.16 7.03) rotate(-13.9)"/><rect class="e" x="15.86" y="5.62" width="5.2" height="6.19" transform="translate(-1.52 12.91) rotate(-37.12)"/><rect class="e" x="7.52" y="13.96" width="5.2" height="6.19" transform="translate(-9.62 15.06) rotate(-53.53)"/><rect class="e" x="2.34" y="23.76" width="5.19" height="6.19" transform="translate(-22.23 24.17) rotate(-73.95)"/><rect class="e" x=".57" y="34.88" width="5.19" height="6.19" transform="translate(-34.88 40.09) rotate(-88.41)"/><rect class="e" x="2.16" y="45.93" width="6.19" height="5.19" transform="translate(-16.44 4.8) rotate(-20.21)"/><rect class="e" x="7.18" y="55.68" width="6.19" height="5.2" transform="translate(-33.42 18.37) rotate(-37.6)"/><rect class="e" x="48.05" y="16.48" width="4.16" height="3.49" transform="translate(7.48 50.26) rotate(-56.89)"/><rect class="e" x="41.14" y="13.22" width="4.16" height="3.49" transform="translate(17.81 52.99) rotate(-75.35)"/><rect class="e" x="34.08" y="12.17" width="3.49" height="4.16" transform="translate(-.76 2.09) rotate(-3.3)"/><rect class="e" x="26.78" y="14.16" width="3.49" height="4.16" transform="translate(-4.27 14.91) rotate(-27.33)"/><rect class="e" x="20.71" y="18.42" width="3.49" height="4.16" transform="translate(-7.95 20.99) rotate(-43.32)"/><rect class="e" x="15.97" y="23.92" width="3.49" height="4.16" transform="translate(-13.7 27.64) rotate(-58.72)"/><rect class="e" x="13.61" y="31.31" width="3.49" height="4.16" transform="translate(-19.6 44.76) rotate(-83.32)"/><rect class="e" x="13.08" y="38.94" width="4.16" height="3.49" transform="translate(-2.75 1.13) rotate(-3.93)"/><rect class="e" x="15.16" y="45.96" width="4.16" height="3.49" transform="translate(-22.01 15.58) rotate(-30.83)"/><rect class="e" x="19.83" y="51.96" width="4.16" height="3.49" transform="translate(-30.69 29.26) rotate(-42.88)"/><rect class="e" x="25.49" y="56.76" width="4.16" height="3.49" transform="translate(-37.09 56.83) rotate(-63.29)"/><rect class="e" x="33.2" y="58.78" width="4.16" height="3.49" transform="translate(-27.04 92.54) rotate(-86.95)"/><rect class="e" x="40.92" y="58.26" width="3.49" height="4.16" transform="translate(-7.72 6.28) rotate(-7.72)"/><rect class="e" x="47.84" y="55.7" width="3.49" height="4.16" transform="translate(-23.95 38.05) rotate(-34.35)"/></g></g></g></g></svg>